<svg id="visual" viewBox="0 0 1280 5000" width="1280" height="5000" xmlns="http://www.w3.org/2000/svg" xmlns:xlink="http://www.w3.org/1999/xlink" version="1.1"><rect x="0" y="0" width="1280" height="5000" fill="#a2c7e3"></rect><path d="M0 3992L106.7 4094.5C213.3 4197 426.7 4402 640 4559.2C853.3 4716.3 1066.7 4825.7 1173.3 4880.3L1280 4935L1280 0L1173.3 0C1066.7 0 853.3 0 640 0C426.7 0 213.3 0 106.7 0L0 0Z" fill="#1e1217"></path><path d="M0 4030L106.7 4046.7C213.3 4063.3 426.7 4096.7 640 4060.2C853.3 4023.7 1066.7 3917.3 1173.3 3864.2L1280 3811L1280 0L1173.3 0C1066.7 0 853.3 0 640 0C426.7 0 213.3 0 106.7 0L0 0Z" fill="#3a1d26"></path><path d="M0 3654L106.7 3714.2C213.3 3774.3 426.7 3894.7 640 3971C853.3 4047.3 1066.7 4079.7 1173.3 4095.8L1280 4112L1280 0L1173.3 0C1066.7 0 853.3 0 640 0C426.7 0 213.3 0 106.7 0L0 0Z" fill="#592933"></path><path d="M0 3656L106.7 3669C213.3 3682 426.7 3708 640 3632.7C853.3 3557.3 1066.7 3380.7 1173.3 3292.3L1280 3204L1280 0L1173.3 0C1066.7 0 853.3 0 640 0C426.7 0 213.3 0 106.7 0L0 0Z" fill="#79353c"></path><path d="M0 3151L106.7 3139.3C213.3 3127.7 426.7 3104.3 640 3133.8C853.3 3163.3 1066.7 3245.7 1173.3 3286.8L1280 3328L1280 0L1173.3 0C1066.7 0 853.3 0 640 0C426.7 0 213.3 0 106.7 0L0 0Z" fill="#994442"></path><path d="M0 2494L106.7 2478.8C213.3 2463.7 426.7 2433.3 640 2367.7C853.3 2302 1066.7 2201 1173.3 2150.5L1280 2100L1280 0L1173.3 0C1066.7 0 853.3 0 640 0C426.7 0 213.3 0 106.7 0L0 0Z" fill="#a54a43"></path><path d="M0 2396L106.7 2315C213.3 2234 426.7 2072 640 2024.3C853.3 1976.7 1066.7 2043.3 1173.3 2076.7L1280 2110L1280 0L1173.3 0C1066.7 0 853.3 0 640 0C426.7 0 213.3 0 106.7 0L0 0Z" fill="#a54a43"></path><path d="M0 1507L106.7 1491.2C213.3 1475.3 426.7 1443.7 640 1484C853.3 1524.3 1066.7 1636.7 1173.3 1692.8L1280 1749L1280 0L1173.3 0C1066.7 0 853.3 0 640 0C426.7 0 213.3 0 106.7 0L0 0Z" fill="#994442"></path><path d="M0 1853L106.7 1809.8C213.3 1766.7 426.7 1680.3 640 1583.5C853.3 1486.7 1066.7 1379.3 1173.3 1325.7L1280 1272L1280 0L1173.3 0C1066.7 0 853.3 0 640 0C426.7 0 213.3 0 106.7 0L0 0Z" fill="#79353c"></path><path d="M0 1094L106.7 1129.7C213.3 1165.3 426.7 1236.7 640 1191.7C853.3 1146.7 1066.7 985.3 1173.3 904.7L1280 824L1280 0L1173.3 0C1066.7 0 853.3 0 640 0C426.7 0 213.3 0 106.7 0L0 0Z" fill="#592933"></path><path d="M0 757L106.7 778.8C213.3 800.7 426.7 844.3 640 786C853.3 727.7 1066.7 567.3 1173.3 487.2L1280 407L1280 0L1173.3 0C1066.7 0 853.3 0 640 0C426.7 0 213.3 0 106.7 0L0 0Z" fill="#3a1d26"></path><path d="M0 498L106.7 534.8C213.3 571.7 426.7 645.3 640 606.3C853.3 567.3 1066.7 415.7 1173.3 339.8L1280 264L1280 0L1173.3 0C1066.7 0 853.3 0 640 0C426.7 0 213.3 0 106.7 0L0 0Z" fill="#1e1217"></path></svg>