<svg id="visual" viewBox="0 0 900 600" width="900" height="600" xmlns="http://www.w3.org/2000/svg" xmlns:xlink="http://www.w3.org/1999/xlink" version="1.1"><rect x="0" y="0" width="900" height="600" fill="#a2c7e3"></rect><path d="M0 359L75 353C150 347 300 335 450 325.7C600 316.3 750 309.7 825 306.3L900 303L900 601L825 601C750 601 600 601 450 601C300 601 150 601 75 601L0 601Z" fill="#a54a43"></path><path d="M0 357L75 356C150 355 300 353 450 355.2C600 357.3 750 363.7 825 366.8L900 370L900 601L825 601C750 601 600 601 450 601C300 601 150 601 75 601L0 601Z" fill="#994442"></path><path d="M0 380L75 376.3C150 372.7 300 365.3 450 360.7C600 356 750 354 825 353L900 352L900 601L825 601C750 601 600 601 450 601C300 601 150 601 75 601L0 601Z" fill="#8c3d40"></path><path d="M0 380L75 379.2C150 378.3 300 376.7 450 381.2C600 385.7 750 396.3 825 401.7L900 407L900 601L825 601C750 601 600 601 450 601C300 601 150 601 75 601L0 601Z" fill="#7f383e"></path><path d="M0 410L75 410.7C150 411.3 300 412.7 450 410.8C600 409 750 404 825 401.5L900 399L900 601L825 601C750 601 600 601 450 601C300 601 150 601 75 601L0 601Z" fill="#72323b"></path><path d="M0 449L75 450C150 451 300 453 450 457C600 461 750 467 825 470L900 473L900 601L825 601C750 601 600 601 450 601C300 601 150 601 75 601L0 601Z" fill="#652d37"></path><path d="M0 455L75 459.8C150 464.7 300 474.3 450 477.2C600 480 750 476 825 474L900 472L900 601L825 601C750 601 600 601 450 601C300 601 150 601 75 601L0 601Z" fill="#592933"></path><path d="M0 509L75 509.8C150 510.7 300 512.3 450 509.8C600 507.3 750 500.7 825 497.3L900 494L900 601L825 601C750 601 600 601 450 601C300 601 150 601 75 601L0 601Z" fill="#4c242e"></path><path d="M0 488L75 490.5C150 493 300 498 450 503.8C600 509.7 750 516.3 825 519.7L900 523L900 601L825 601C750 601 600 601 450 601C300 601 150 601 75 601L0 601Z" fill="#402029"></path><path d="M0 533L75 530.8C150 528.7 300 524.3 450 527.2C600 530 750 540 825 545L900 550L900 601L825 601C750 601 600 601 450 601C300 601 150 601 75 601L0 601Z" fill="#341b23"></path><path d="M0 554L75 552.7C150 551.3 300 548.7 450 552.2C600 555.7 750 565.3 825 570.2L900 575L900 601L825 601C750 601 600 601 450 601C300 601 150 601 75 601L0 601Z" fill="#29171d"></path><path d="M0 569L75 566.8C150 564.7 300 560.3 450 562.7C600 565 750 574 825 578.5L900 583L900 601L825 601C750 601 600 601 450 601C300 601 150 601 75 601L0 601Z" fill="#1e1217"></path></svg>