<svg id="visual" viewBox="0 0 900 1400" width="900" height="1400" xmlns="http://www.w3.org/2000/svg" xmlns:xlink="http://www.w3.org/1999/xlink" version="1.1"><rect x="0" y="0" width="900" height="1400" fill="#76e1db"></rect><path d="M0 335L75 483.3C150 631.7 300 928.3 450 1011.3C600 1094.3 750 963.7 825 898.3L900 833L900 0L825 0C750 0 600 0 450 0C300 0 150 0 75 0L0 0Z" fill="#d2447f"></path><path d="M0 1155L75 1080.3C150 1005.7 300 856.3 450 699.7C600 543 750 379 825 297L900 215L900 0L825 0C750 0 600 0 450 0C300 0 150 0 75 0L0 0Z" fill="#d6477d"></path><path d="M0 724L75 746.7C150 769.3 300 814.7 450 731C600 647.3 750 434.7 825 328.3L900 222L900 0L825 0C750 0 600 0 450 0C300 0 150 0 75 0L0 0Z" fill="#d94b7a"></path><path d="M0 348L75 294.5C150 241 300 134 450 240.8C600 347.7 750 668.3 825 828.7L900 989L900 0L825 0C750 0 600 0 450 0C300 0 150 0 75 0L0 0Z" fill="#dc4f78"></path><path d="M0 775L75 657.2C150 539.3 300 303.7 450 251.8C600 200 750 332 825 398L900 464L900 0L825 0C750 0 600 0 450 0C300 0 150 0 75 0L0 0Z" fill="#df5376"></path><path d="M0 223L75 220.7C150 218.3 300 213.7 450 251C600 288.3 750 367.7 825 407.3L900 447L900 0L825 0C750 0 600 0 450 0C300 0 150 0 75 0L0 0Z" fill="#e25774"></path><path d="M0 240L75 320.5C150 401 300 562 450 642C600 722 750 721 825 720.5L900 720L900 0L825 0C750 0 600 0 450 0C300 0 150 0 75 0L0 0Z" fill="#e45b72"></path><path d="M0 13L75 61.3C150 109.7 300 206.3 450 214.3C600 222.3 750 141.7 825 101.3L900 61L900 0L825 0C750 0 600 0 450 0C300 0 150 0 75 0L0 0Z" fill="#e75f70"></path><path d="M0 467L75 472.8C150 478.7 300 490.3 450 499.7C600 509 750 516 825 519.5L900 523L900 0L825 0C750 0 600 0 450 0C300 0 150 0 75 0L0 0Z" fill="#e9646e"></path><path d="M0 143L75 176.5C150 210 300 277 450 301.8C600 326.7 750 309.3 825 300.7L900 292L900 0L825 0C750 0 600 0 450 0C300 0 150 0 75 0L0 0Z" fill="#eb686c"></path><path d="M0 296L75 249.8C150 203.7 300 111.3 450 102.2C600 93 750 167 825 204L900 241L900 0L825 0C750 0 600 0 450 0C300 0 150 0 75 0L0 0Z" fill="#ec6c6b"></path><path d="M0 62L75 58.2C150 54.3 300 46.7 450 52.7C600 58.7 750 78.3 825 88.2L900 98L900 0L825 0C750 0 600 0 450 0C300 0 150 0 75 0L0 0Z" fill="#ee7169"></path></svg>