<svg id="visual" viewBox="0 0 1280 720" width="1280" height="720" xmlns="http://www.w3.org/2000/svg" xmlns:xlink="http://www.w3.org/1999/xlink" version="1.1"><rect x="0" y="0" width="1280" height="720" fill="#a2c7e3"></rect><path d="M0 574L106.7 588.8C213.3 603.7 426.7 633.3 640 656C853.3 678.7 1066.7 694.3 1173.3 702.2L1280 710L1280 0L1173.3 0C1066.7 0 853.3 0 640 0C426.7 0 213.3 0 106.7 0L0 0Z" fill="#1e1217"></path><path d="M0 579L106.7 581.5C213.3 584 426.7 589 640 583.8C853.3 578.7 1066.7 563.3 1173.3 555.7L1280 548L1280 0L1173.3 0C1066.7 0 853.3 0 640 0C426.7 0 213.3 0 106.7 0L0 0Z" fill="#3a1d26"></path><path d="M0 525L106.7 533.7C213.3 542.3 426.7 559.7 640 570.7C853.3 581.7 1066.7 586.3 1173.3 588.7L1280 591L1280 0L1173.3 0C1066.7 0 853.3 0 640 0C426.7 0 213.3 0 106.7 0L0 0Z" fill="#592933"></path><path d="M0 526L106.7 527.8C213.3 529.7 426.7 533.3 640 522.3C853.3 511.3 1066.7 485.7 1173.3 472.8L1280 460L1280 0L1173.3 0C1066.7 0 853.3 0 640 0C426.7 0 213.3 0 106.7 0L0 0Z" fill="#79353c"></path><path d="M0 453L106.7 451.3C213.3 449.7 426.7 446.3 640 450.5C853.3 454.7 1066.7 466.3 1173.3 472.2L1280 478L1280 0L1173.3 0C1066.7 0 853.3 0 640 0C426.7 0 213.3 0 106.7 0L0 0Z" fill="#994442"></path><path d="M0 358L106.7 355.8C213.3 353.7 426.7 349.3 640 340C853.3 330.7 1066.7 316.3 1173.3 309.2L1280 302L1280 0L1173.3 0C1066.7 0 853.3 0 640 0C426.7 0 213.3 0 106.7 0L0 0Z" fill="#a54a43"></path><path d="M0 344L106.7 332.3C213.3 320.7 426.7 297.3 640 290.5C853.3 283.7 1066.7 293.3 1173.3 298.2L1280 303L1280 0L1173.3 0C1066.7 0 853.3 0 640 0C426.7 0 213.3 0 106.7 0L0 0Z" fill="#a54a43"></path><path d="M0 216L106.7 213.7C213.3 211.3 426.7 206.7 640 212.5C853.3 218.3 1066.7 234.7 1173.3 242.8L1280 251L1280 0L1173.3 0C1066.7 0 853.3 0 640 0C426.7 0 213.3 0 106.7 0L0 0Z" fill="#994442"></path><path d="M0 266L106.7 259.8C213.3 253.7 426.7 241.3 640 227.3C853.3 213.3 1066.7 197.7 1173.3 189.8L1280 182L1280 0L1173.3 0C1066.7 0 853.3 0 640 0C426.7 0 213.3 0 106.7 0L0 0Z" fill="#79353c"></path><path d="M0 157L106.7 162C213.3 167 426.7 177 640 170.5C853.3 164 1066.7 141 1173.3 129.5L1280 118L1280 0L1173.3 0C1066.7 0 853.3 0 640 0C426.7 0 213.3 0 106.7 0L0 0Z" fill="#592933"></path><path d="M0 108L106.7 111.2C213.3 114.3 426.7 120.7 640 112.3C853.3 104 1066.7 81 1173.3 69.5L1280 58L1280 0L1173.3 0C1066.7 0 853.3 0 640 0C426.7 0 213.3 0 106.7 0L0 0Z" fill="#3a1d26"></path><path d="M0 71L106.7 76.3C213.3 81.7 426.7 92.3 640 86.7C853.3 81 1066.7 59 1173.3 48L1280 37L1280 0L1173.3 0C1066.7 0 853.3 0 640 0C426.7 0 213.3 0 106.7 0L0 0Z" fill="#1e1217"></path></svg>